<svg width="23" height="23" viewBox="0 0 23 23" fill="none" xmlns="http://www.w3.org/2000/svg">
<path d="M19.2526 10.0968C19.1738 9.4166 18.8484 8.7855 18.3345 8.3158C17.8206 7.84609 17.1515 7.56825 16.446 7.5316V7.33165C16.4466 6.76273 16.3312 6.19936 16.1063 5.67378C15.8815 5.1482 15.5517 4.6708 15.1359 4.26911C14.7209 3.86621 14.2278 3.54672 13.6851 3.32892C13.1423 3.11113 12.5605 2.99934 11.973 3C10.7871 3.00042 9.6499 3.45699 8.81135 4.2694C7.97278 5.08181 7.50151 6.1836 7.50107 7.33252V7.53469C6.80495 7.58262 6.14802 7.86536 5.6447 8.33371C5.14137 8.80206 4.82348 9.4265 4.74599 10.0984L4 16.682C4.00368 17.5648 4.3688 18.41 5.01524 19.0321C5.66168 19.6542 6.53674 20.0023 7.4479 20H16.5523C17.4635 20.0023 18.3383 19.6542 18.9848 19.0321C19.6312 18.41 19.9963 17.5648 20 16.682L19.2526 10.0968ZM8.81435 7.33959C8.81424 6.93776 8.89577 6.53984 9.0544 6.16856C9.2131 5.79729 9.4458 5.45997 9.739 5.1758C10.0323 4.89162 10.3803 4.66614 10.7635 4.51234C11.1467 4.35854 11.5574 4.27947 11.9722 4.27947C12.3871 4.27909 12.7979 4.35804 13.1812 4.51186C13.5644 4.66567 13.9127 4.89122 14.2058 5.1757C14.4996 5.45956 14.7325 5.79684 14.8914 6.16818C15.0503 6.53951 15.132 6.93761 15.1317 7.33959V7.52521H8.81435V7.33959ZM9.4374 11.8403C9.3332 11.8404 9.2299 11.8206 9.1336 11.782C9.0373 11.7434 8.94981 11.6868 8.87612 11.6154C8.80243 11.544 8.74404 11.4592 8.70421 11.3659C8.66438 11.2726 8.64394 11.1726 8.64405 11.0717C8.64394 10.9707 8.66438 10.8707 8.70421 10.7774C8.74404 10.6841 8.80243 10.5993 8.87612 10.5279C8.94981 10.4565 9.0373 10.3999 9.1336 10.3614C9.2299 10.3228 9.3332 10.303 9.4374 10.3031C9.5418 10.3029 9.6452 10.3225 9.7416 10.3611C9.8381 10.3996 9.9258 10.4561 9.9997 10.5275C10.0736 10.5989 10.1323 10.6837 10.1724 10.777C10.2125 10.8704 10.2331 10.9706 10.2332 11.0717C10.2331 11.1728 10.2125 11.2729 10.1724 11.3662C10.1323 11.4596 10.0736 11.5444 9.9997 11.6158C9.9258 11.6871 9.8381 11.7437 9.7416 11.7822C9.6452 11.8207 9.5418 11.8405 9.4374 11.8403ZM14.5644 11.8403C14.46 11.8405 14.3566 11.8207 14.2602 11.7822C14.1637 11.7437 14.076 11.6871 14.0021 11.6158C13.9282 11.5444 13.8695 11.4596 13.8294 11.3662C13.7893 11.2729 13.7687 11.1728 13.7686 11.0717C13.7687 10.9706 13.7893 10.8704 13.8294 10.777C13.8695 10.6837 13.9282 10.5989 14.0021 10.5275C14.076 10.4561 14.1637 10.3996 14.2602 10.3611C14.3566 10.3225 14.46 10.3029 14.5644 10.3031C14.6686 10.303 14.7717 10.3228 14.868 10.3614C14.9643 10.3999 15.052 10.4565 15.1257 10.5279C15.1994 10.5993 15.2578 10.6841 15.2976 10.7774C15.3374 10.8707 15.3579 10.9707 15.3578 11.0717C15.3579 11.1726 15.3374 11.2726 15.2976 11.3659C15.2578 11.4592 15.1994 11.544 15.1257 11.6154C15.052 11.6868 14.9643 11.7434 14.868 11.782C14.7717 11.8206 14.6686 11.8404 14.5644 11.8403Z" fill="#D5D5D9"/>
<path d="M9.5 13C10.3284 13 11 12.3284 11 11.5C11 10.6716 10.3284 10 9.5 10C8.67157 10 8 10.6716 8 11.5C8 12.3284 8.67157 13 9.5 13Z" fill="#9796A1"/>
<path d="M14.5 13C15.3284 13 16 12.3284 16 11.5C16 10.6716 15.3284 10 14.5 10C13.6716 10 13 10.6716 13 11.5C13 12.3284 13.6716 13 14.5 13Z" fill="#9796A1"/>
</svg>
